# Blender v2.92.0 OBJ File: 'piano_body_booleaned_export.blend'
# www.blender.org
mtllib piano_lid_open.mtl
o box.001_Cube.031
v 0.000000 -0.006361 0.891709
v 0.427076 -0.006361 -1.352986
v 0.723338 -0.006361 -1.352986
v 0.000000 -0.006361 0.048518
v 1.175029 -0.006361 -0.891710
v 0.000000 -0.006361 -0.891709
v 1.152772 -0.006361 -0.952369
v 1.122459 -0.006361 -1.020612
v 1.083052 -0.006361 -1.088854
v 1.033036 -0.006361 -1.157096
v 0.969379 -0.006361 -1.225338
v 0.873894 -0.006361 -1.293581
v 0.275762 -0.006361 -1.293581
v 0.181035 -0.006361 -1.225338
v 0.115778 -0.006361 -1.157096
v 0.069467 -0.006361 -1.088854
v 0.034733 -0.006361 -1.020612
v 0.010525 -0.006361 -0.952369
v 0.000000 -0.006361 -0.534423
v 1.248825 -0.006361 -0.534423
v 0.000000 -0.006361 -0.393893
v 0.000000 -0.006361 -0.248158
v 0.000000 -0.006361 -0.102422
v 1.666265 -0.006361 -0.248158
v 1.395917 -0.006361 -0.393893
v 1.299643 -0.006361 -0.464158
v 0.000000 -0.006361 -0.464158
v 1.215231 -0.006361 -0.737802
v 0.000000 -0.006361 -0.737801
v 0.000000 -0.006361 -0.577791
v 1.238743 -0.006361 -0.577791
v 1.269361 -0.006361 -0.499291
v 0.000000 -0.006361 -0.499290
v 0.000000 -0.006361 -0.432862
v 1.336432 -0.006361 -0.432862
v 0.000000 -0.006361 -0.308899
v 1.554770 -0.006361 -0.308899
v 0.000000 -0.006361 -0.181180
v 1.754050 -0.006361 -0.181180
v 0.000000 -0.006361 -0.045364
v 0.000000 -0.006361 0.001577
v 0.000000 -0.006361 0.086367
v 0.798448 -0.006361 -1.331493
v 0.351588 -0.006361 -1.331493
v 0.526010 -0.006361 -1.370528
v 0.624404 -0.006361 -1.370528
v 0.000000 -0.006361 0.287702
v 0.907543 -0.006361 0.891709
v 0.573431 -0.006361 -1.370528
v 0.551192 -0.006361 -1.370528
v 0.057155 -0.006361 0.891709
v 0.599364 -0.006361 -1.370528
v 0.000000 -0.006361 0.718842
v 0.000000 -0.006361 0.575129
v 0.000000 -0.006361 0.431415
v 0.000000 -0.006361 0.862555
v 0.613056 -0.006361 -1.370528
v 0.585464 -0.006361 -1.370528
v 0.562312 -0.006361 -1.370528
v 0.028577 -0.006361 0.891709
v 0.538601 -0.006361 -1.370528
v 0.269752 -0.006361 0.891709
v 0.482349 -0.006361 0.891709
v 0.694946 -0.006361 0.891709
v 1.136041 -0.006361 0.891709
v 1.364539 -0.006361 0.891709
v 1.593037 -0.006361 0.891709
v 0.000000 0.006361 0.891709
v 0.427076 0.006361 -1.352986
v 0.723338 0.006361 -1.352986
v 0.000000 0.006361 0.048518
v 1.175029 0.006361 -0.891710
v 0.000000 0.006361 -0.891709
v 1.152772 0.006361 -0.952369
v 1.122459 0.006361 -1.020612
v 1.083052 0.006361 -1.088854
v 1.033036 0.006361 -1.157096
v 0.969379 0.006361 -1.225338
v 0.873894 0.006361 -1.293581
v 0.275762 0.006361 -1.293581
v 0.181035 0.006361 -1.225338
v 0.115778 0.006361 -1.157096
v 0.069467 0.006361 -1.088854
v 0.034733 0.006361 -1.020612
v 0.010525 0.006361 -0.952369
v 0.000000 0.006361 -0.534423
v 1.248825 0.006361 -0.534423
v 0.000000 0.006361 -0.393893
v 0.000000 0.006361 -0.248158
v 0.000000 0.006361 -0.102422
v 1.666265 0.006361 -0.248158
v 1.395917 0.006361 -0.393893
v 1.299643 0.006361 -0.464158
v 0.000000 0.006361 -0.464158
v 1.215231 0.006361 -0.737802
v 0.000000 0.006361 -0.737801
v 0.000000 0.006361 -0.577791
v 1.238743 0.006361 -0.577791
v 1.269361 0.006361 -0.499291
v 0.000000 0.006361 -0.499290
v 0.000000 0.006361 -0.432862
v 1.336432 0.006361 -0.432862
v 0.000000 0.006361 -0.308899
v 1.554770 0.006361 -0.308899
v 0.000000 0.006361 -0.181180
v 1.754050 0.006361 -0.181180
v 0.000000 0.006361 -0.045364
v 0.000000 0.006361 0.001577
v 0.000000 0.006361 0.086367
v 0.798448 0.006361 -1.331493
v 0.351588 0.006361 -1.331493
v 0.526010 0.006361 -1.370528
v 0.624404 0.006361 -1.370528
v 0.000000 0.006361 0.287702
v 0.907543 0.006361 0.891709
v 0.573431 0.006361 -1.370528
v 0.551192 0.006361 -1.370528
v 0.057155 0.006361 0.891709
v 0.599364 0.006361 -1.370528
v 0.000000 0.006361 0.718842
v 0.000000 0.006361 0.575129
v 0.000000 0.006361 0.431415
v 0.000000 0.006361 0.862555
v 0.613056 0.006361 -1.370528
v 0.585464 0.006361 -1.370528
v 0.562312 0.006361 -1.370528
v 0.028577 0.006361 0.891709
v 0.538601 0.006361 -1.370528
v 0.269752 0.006361 0.891709
v 0.482349 0.006361 0.891709
v 0.694946 0.006361 0.891709
v 1.136041 0.006361 0.891709
v 1.364539 0.006361 0.891709
v 1.593037 0.006361 0.891709
v 1.776924 0.006361 0.891709
v 1.776924 -0.006361 0.891709
v 1.776924 -0.006361 -0.154983
v 1.776924 0.006361 -0.154983
vt -0.265228 1.045320
vt -0.180705 1.045320
vt -0.180705 1.056981
vt 0.568645 1.068000
vt 0.484122 1.068000
vt 0.484122 0.986309
vt -1.304730 1.549021
vt -1.389253 1.549021
vt -1.389253 1.337388
vt -1.304730 1.745927
vt -1.389253 1.745927
vt 0.568645 0.882696
vt 0.484122 0.882696
vt 0.484122 0.735080
vt -1.304730 1.337388
vt -1.389253 1.125755
vt -0.265228 1.023360
vt -0.180705 1.023360
vt -0.180705 1.033658
vt 0.568645 0.679762
vt 0.484122 0.679762
vt 0.484122 0.645509
vt -1.014578 2.206463
vt -0.930055 2.206463
vt -0.930055 2.228931
vt -1.304730 1.125755
vt -1.389253 0.914121
vt -0.265228 1.001917
vt -0.180705 1.001917
vt -0.180705 1.013061
vt -1.014578 1.156958
vt -0.930055 1.156958
vt -0.930055 1.184033
vt -0.265228 0.804433
vt -0.180705 0.804433
vt -0.180705 0.874122
vt 0.193971 1.173070
vt 0.109447 1.173070
vt 0.109447 1.047868
vt -1.014578 1.542951
vt -0.930055 1.542951
vt -0.930055 1.579126
vt -1.014578 0.854541
vt -0.930055 0.854541
vt -0.930055 0.973150
vt -1.014578 0.973150
vt -0.930055 1.096462
vt 0.193971 1.047868
vt 0.109447 0.925334
vt -1.014578 1.608294
vt -0.930055 1.608294
vt -0.930055 1.763454
vt 0.193971 1.207448
vt 0.109447 1.207448
vt -1.014578 0.807383
vt -0.930055 0.807383
vt -1.014578 1.984958
vt -0.930055 1.984958
vt -0.930055 2.095711
vt 0.193971 1.267281
vt 0.109447 1.267281
vt 0.109447 1.236780
vt 0.193971 0.925334
vt 0.109447 0.876270
vt -1.014578 1.874206
vt -0.930055 1.874206
vt -1.014578 1.129884
vt -0.930055 1.129884
vt 0.193971 0.876270
vt 0.109447 0.820442
vt -1.014578 2.095711
vt -1.014578 1.184033
vt -0.930055 1.208151
vt 0.193971 0.820442
vt 0.109447 0.763524
vt -1.014578 1.763454
vt 0.568645 0.735080
vt 0.193971 0.763524
vt 0.109447 0.705334
vt -1.014578 1.238183
vt -0.930055 1.238183
vt -0.930055 1.303684
vt 0.193971 0.705334
vt 0.109447 0.645509
vt 0.568645 0.986309
vt -0.265228 0.645509
vt -0.180705 0.645509
vt -0.180705 0.734338
vt -1.014578 1.350494
vt -0.930055 1.350494
vt -0.930055 1.402110
vt -0.265228 1.218300
vt -0.180705 1.218300
vt -0.180705 1.288308
vt -0.265228 0.976362
vt -0.180705 0.976362
vt -0.180705 0.989043
vt -0.265228 1.288308
vt -0.180705 1.375647
vt -1.014578 1.462805
vt -0.930055 1.462805
vt -0.930055 1.506776
vt -0.265228 1.375647
vt -0.180705 1.435691
vt -1.014578 0.645509
vt -0.930055 0.645509
vt -0.930055 0.699904
vt -1.014578 1.506776
vt -1.014578 0.699904
vt -0.930055 0.753849
vt -0.265228 0.965852
vt -0.180705 0.965852
vt -1.014578 0.753849
vt -0.265228 0.989043
vt -1.014578 1.579126
vt -1.014578 1.096462
vt -0.265228 1.013061
vt -0.265228 0.734338
vt 0.193971 1.236780
vt -1.304730 2.389580
vt -1.389253 2.389580
vt -1.389253 2.363112
vt -0.265228 1.148509
vt -0.180705 1.148509
vt -1.014578 1.208151
vt -0.265228 1.033658
vt -0.265228 1.056981
vt -1.014578 1.303684
vt -1.304730 2.336643
vt -1.389253 2.336643
vt -1.389253 2.139738
vt -0.265228 0.874122
vt -1.014578 1.402110
vt -1.304730 2.139738
vt -1.389253 1.942832
vt -1.304730 2.363112
vt -1.304730 1.942832
vt 1.719091 0.341826
vt 1.846788 0.355357
vt 2.389040 -0.256107
vt 0.354818 -0.744665
vt -0.792496 -0.778115
vt 0.354818 -0.717566
vt -1.389253 0.743806
vt -1.304730 0.743806
vt -0.555380 0.645509
vt -0.555380 0.668287
vt -0.639903 0.668287
vt 0.568645 0.645509
vt -1.014578 2.228931
vt -1.304730 0.914121
vt 0.193971 0.645509
vt -0.265228 1.435691
vt 2.362572 -1.389580
vt 2.389040 -1.367092
vt 2.389040 -1.389580
vt 2.389040 -1.256241
vt 2.139198 -1.389580
vt 2.389040 -1.145391
vt 2.389040 -1.034540
vt 2.336104 -1.389580
vt 1.942293 -1.389580
vt 2.389040 -0.923689
vt 1.745387 -1.389580
vt 2.389040 -0.768393
vt 1.548482 -1.389580
vt 1.213368 -0.316657
vt 2.389040 -0.739199
vt 2.389040 -0.702992
vt 1.125215 -1.389580
vt 1.096153 -0.397953
vt 1.336848 -1.389580
vt 1.151247 -0.367895
vt 2.389040 -0.666785
vt 1.232389 -0.289558
vt 2.389040 -0.622774
vt 1.185321 -0.343755
vt 0.743267 -1.389580
vt 0.743267 -0.582232
vt 0.913582 -1.389580
vt 2.389040 -0.562025
vt 2.389040 -0.510364
vt 0.845759 -0.510364
vt 0.764453 -0.562025
vt 0.949025 -0.463512
vt 2.389040 -0.463512
vt 2.389040 -0.397953
vt 1.241726 -0.256107
vt 2.389040 -0.367895
vt 2.389040 -0.343756
vt 2.389040 -0.316657
vt 2.389040 -0.289558
vt 1.263503 -0.132685
vt 2.389040 -0.132685
vt 2.324701 0.138093
vt 2.389040 -0.013971
vt 2.356871 0.085455
vt 2.379292 0.032817
vt 2.281808 0.190730
vt 2.221367 0.243368
vt 2.133632 0.296005
vt 1.993486 0.341826
vt 2.063403 0.325248
vt 1.890192 0.355357
vt 1.901854 0.355357
vt 1.878531 0.355357
vt 1.868232 0.355357
vt 1.857933 0.355357
vt 1.300737 -0.013971
vt 1.321352 0.032818
vt 1.349428 0.085455
vt 1.385926 0.138093
vt 1.432250 0.190730
vt 1.579647 0.296005
vt 1.491209 0.243368
vt 1.649525 0.325248
vt 1.821233 0.355357
vt 1.810722 0.355357
vt 1.833914 0.355357
vt -1.290956 -0.451990
vt -1.188464 -0.523859
vt -1.269770 -0.472197
vt -0.909007 0.355357
vt -1.085198 -0.570711
vt -0.938069 -0.636269
vt -1.120641 0.355357
vt -1.290956 0.355357
vt -0.485741 0.355357
vt -0.882975 -0.666327
vt -0.697374 0.355357
vt -0.091930 0.355357
vt 0.354818 -0.110533
vt -0.288836 0.355357
vt -0.820855 -0.717566
vt -0.848902 -0.690467
vt 0.301881 0.355357
vt 0.354818 0.222019
vt 0.104976 0.355357
vt 0.354818 0.000318
vt 0.354818 0.355357
vt 0.354818 0.332869
vt 0.328349 0.355357
vt 0.354818 -0.295024
vt 0.354818 0.111168
vt 0.354818 -0.367438
vt -0.801834 -0.744665
vt -0.770720 -0.901537
vt 0.354818 -0.778115
vt -0.733485 -1.020252
vt 0.354818 -0.570711
vt 0.354818 -0.265830
vt 0.354818 -0.523859
vt 0.354818 -0.331231
vt -0.712870 -1.067040
vt -0.648297 -1.172315
vt -0.684795 -1.119678
vt -0.315132 -1.376049
vt -0.601972 -1.224952
vt -0.454576 -1.330228
vt -0.543014 -1.277590
vt -0.384698 -1.359470
vt -0.212990 -1.389580
vt -0.223500 -1.389580
vt -0.200309 -1.389580
vt -0.187435 -1.389580
vt 0.354818 -0.901537
vt -0.176290 -1.389580
vt 0.354818 -0.472197
vt -0.165991 -1.389580
vt -0.155692 -1.389580
vt -0.040737 -1.376049
vt -0.144030 -1.389580
vt 0.354818 -0.411448
vt 0.354818 -0.636269
vt -0.132369 -1.389580
vt 0.099409 -1.330228
vt 0.029180 -1.359470
vt 0.187145 -1.277590
vt 0.247585 -1.224952
vt 0.290478 -1.172315
vt 0.354818 -1.020251
vt 0.322648 -1.119678
vt 0.345069 -1.067040
vt 0.354818 -0.666327
vt 0.354818 -0.690467
vt -0.639903 0.645509
vn 0.0000 0.0000 -1.0000
vn 0.6066 0.0000 -0.7950
vn 0.0000 0.0000 1.0000
vn 0.4718 0.0000 -0.8817
vn 0.6480 0.0000 -0.7617
vn -1.0000 0.0000 0.0000
vn 0.2751 0.0000 -0.9614
vn 0.9894 0.0000 -0.1454
vn 0.9675 0.0000 -0.2527
vn 0.9740 0.0000 -0.2264
vn -0.9853 0.0000 -0.1710
vn 0.7575 0.0000 -0.6529
vn 0.9388 0.0000 -0.3445
vn 0.9139 0.0000 -0.4059
vn 0.8660 0.0000 -0.5001
vn 0.5480 0.0000 -0.8365
vn 0.8066 0.0000 -0.5911
vn 0.7312 0.0000 -0.6821
vn 0.4784 0.0000 -0.8781
vn 0.5815 0.0000 -0.8136
vn -0.4472 0.0000 -0.8944
vn -0.5845 0.0000 -0.8114
vn -0.7227 0.0000 -0.6911
vn -0.8275 0.0000 -0.5615
vn -0.8912 0.0000 -0.4536
vn -0.9425 0.0000 -0.3343
vn 0.4490 0.0000 -0.8935
vn 0.8633 0.0000 -0.5047
vn -0.2738 0.0000 -0.9618
vn -0.1746 0.0000 -0.9846
vn 0.1746 0.0000 -0.9846
vn 0.0000 1.0000 0.0000
vn 0.0000 -1.0000 0.0000
vn 0.7533 0.0000 -0.6577
vn 0.8633 0.0000 -0.5046
usemtl body
s off
f 128/1/1 61/2/1 45/3/1
f 106/4/2 39/5/2 24/6/2
f 115/7/3 48/8/3 65/9/3
f 131/10/3 64/11/3 48/8/3
f 104/12/4 37/13/4 25/14/4
f 132/15/3 65/9/3 66/16/3
f 126/17/1 59/18/1 50/19/1
f 102/20/5 35/21/5 26/22/5
f 123/23/6 56/24/6 1/25/6
f 133/26/3 66/16/3 67/27/3
f 125/28/1 58/29/1 49/30/1
f 100/31/6 33/32/6 27/33/6
f 110/34/7 43/35/7 3/36/7
f 98/37/8 31/38/8 28/39/8
f 108/40/6 41/41/6 4/42/6
f 73/43/6 6/44/6 29/45/6
f 96/46/6 29/45/6 30/47/6
f 95/48/9 28/39/9 5/49/9
f 109/50/6 42/51/6 47/52/6
f 87/53/10 20/54/10 31/38/10
f 85/55/11 18/56/11 6/44/11
f 121/57/6 54/58/6 53/59/6
f 93/60/12 26/61/12 32/62/12
f 72/63/13 5/49/13 7/64/13
f 122/65/6 55/66/6 54/58/6
f 86/67/6 19/68/6 33/32/6
f 74/69/14 7/64/14 8/70/14
f 120/71/6 53/59/6 56/24/6
f 94/72/6 27/33/6 34/73/6
f 75/74/15 8/70/15 9/75/15
f 114/76/6 47/52/6 55/66/6
f 92/77/16 25/14/16 35/21/16
f 76/78/17 9/75/17 10/79/17
f 88/80/6 21/81/6 36/82/6
f 77/83/18 10/79/18 11/84/18
f 91/85/19 24/6/19 37/13/19
f 78/86/20 11/87/20 12/88/20
f 89/89/6 22/90/6 38/91/6
f 111/92/21 44/93/21 13/94/21
f 124/95/1 57/96/1 52/97/1
f 80/98/22 13/94/22 14/99/22
f 90/100/6 23/101/6 40/102/6
f 81/103/23 14/99/23 15/104/23
f 82/105/24 15/106/24 16/107/24
f 107/108/6 40/102/6 41/41/6
f 83/109/25 16/107/25 17/110/25
f 113/111/1 46/112/1 57/96/1
f 84/113/26 17/110/26 18/56/26
f 119/114/1 52/97/1 58/29/1
f 71/115/6 4/42/6 42/51/6
f 97/116/6 30/47/6 19/68/6
f 116/117/1 49/30/1 59/18/1
f 79/118/27 12/88/27 43/35/27
f 99/119/28 32/62/28 20/54/28
f 68/120/3 1/121/3 60/122/3
f 69/123/29 2/124/29 44/93/29
f 101/125/6 34/73/6 21/81/6
f 117/126/1 50/19/1 61/2/1
f 112/127/30 45/3/30 2/124/30
f 103/128/6 36/82/6 22/90/6
f 118/129/3 51/130/3 62/131/3
f 70/132/31 3/36/31 46/112/31
f 105/133/6 38/91/6 23/101/6
f 129/134/3 62/131/3 63/135/3
f 127/136/3 60/122/3 51/130/3
f 130/137/3 63/135/3 64/11/3
f 3/138/32 58/139/32 30/140/32
f 86/141/33 98/142/33 100/143/33
f 67/27/3 136/144/3 135/145/3
f 106/146/34 138/147/34 137/148/34
f 128/1/1 45/3/1 112/127/1
f 106/4/2 24/6/2 91/85/2
f 115/7/3 65/9/3 132/15/3
f 131/10/3 48/8/3 115/7/3
f 104/12/4 25/14/4 92/77/4
f 132/15/3 66/16/3 133/26/3
f 126/17/1 50/19/1 117/126/1
f 102/20/5 26/22/5 93/149/5
f 123/23/6 1/25/6 68/150/6
f 133/26/3 67/27/3 134/151/3
f 125/28/1 49/30/1 116/117/1
f 100/31/6 27/33/6 94/72/6
f 110/34/7 3/36/7 70/132/7
f 98/37/8 28/39/8 95/48/8
f 108/40/6 4/42/6 71/115/6
f 73/43/6 29/45/6 96/46/6
f 96/46/6 30/47/6 97/116/6
f 95/48/9 5/49/9 72/63/9
f 109/50/6 47/52/6 114/76/6
f 87/53/10 31/38/10 98/37/10
f 85/55/11 6/44/11 73/43/11
f 121/57/6 53/59/6 120/71/6
f 93/60/12 32/62/12 99/119/12
f 72/63/13 7/64/13 74/69/13
f 122/65/6 54/58/6 121/57/6
f 86/67/6 33/32/6 100/31/6
f 74/69/14 8/70/14 75/74/14
f 120/71/6 56/24/6 123/23/6
f 94/72/6 34/73/6 101/125/6
f 75/74/15 9/75/15 76/78/15
f 114/76/6 55/66/6 122/65/6
f 92/77/16 35/21/16 102/20/16
f 76/78/17 10/79/17 77/83/17
f 88/80/6 36/82/6 103/128/6
f 77/83/18 11/84/18 78/152/18
f 91/85/19 37/13/19 104/12/19
f 78/86/20 12/88/20 79/118/20
f 89/89/6 38/91/6 105/133/6
f 111/92/21 13/94/21 80/98/21
f 124/95/1 52/97/1 119/114/1
f 80/98/22 14/99/22 81/103/22
f 90/100/6 40/102/6 107/108/6
f 81/103/23 15/104/23 82/153/23
f 82/105/24 16/107/24 83/109/24
f 107/108/6 41/41/6 108/40/6
f 83/109/25 17/110/25 84/113/25
f 113/111/1 57/96/1 124/95/1
f 84/113/26 18/56/26 85/55/26
f 119/114/1 58/29/1 125/28/1
f 71/115/6 42/51/6 109/50/6
f 97/116/6 19/68/6 86/67/6
f 116/117/1 59/18/1 126/17/1
f 79/118/27 43/35/27 110/34/27
f 99/119/35 20/54/35 87/53/35
f 68/120/3 60/122/3 127/136/3
f 69/123/29 44/93/29 111/92/29
f 101/125/6 21/81/6 88/80/6
f 117/126/1 61/2/1 128/1/1
f 112/127/30 2/124/30 69/123/30
f 103/128/6 22/90/6 89/89/6
f 118/129/3 62/131/3 129/134/3
f 70/132/31 46/112/31 113/111/31
f 105/133/6 23/101/6 90/100/6
f 129/134/3 63/135/3 130/137/3
f 127/136/3 51/130/3 118/129/3
f 130/137/3 64/11/3 131/10/3
f 60/154/32 56/155/32 1/156/32
f 53/157/32 62/158/32 54/159/32
f 54/159/32 62/158/32 55/160/32
f 53/157/32 51/161/32 62/158/32
f 60/154/32 51/161/32 56/155/32
f 56/155/32 51/161/32 53/157/32
f 63/162/32 55/160/32 62/158/32
f 55/160/32 63/162/32 47/163/32
f 47/163/32 64/164/32 42/165/32
f 63/162/32 64/164/32 47/163/32
f 48/166/32 32/167/32 64/164/32
f 42/165/32 64/164/32 4/168/32
f 4/168/32 32/167/32 41/169/32
f 4/168/32 64/164/32 32/167/32
f 66/170/32 25/171/32 65/172/32
f 65/172/32 35/173/32 48/166/32
f 65/172/32 25/171/32 35/173/32
f 41/169/32 32/167/32 40/174/32
f 40/174/32 20/175/32 23/176/32
f 35/173/32 26/177/32 48/166/32
f 136/178/32 137/179/32 67/180/32
f 67/180/32 137/179/32 66/170/32
f 26/177/32 32/167/32 48/166/32
f 23/176/32 20/175/32 38/181/32
f 38/181/32 20/175/32 22/182/32
f 24/183/32 137/179/32 39/184/32
f 25/171/32 66/170/32 37/185/32
f 37/185/32 66/170/32 24/183/32
f 24/183/32 66/170/32 137/179/32
f 22/182/32 20/175/32 36/186/32
f 36/186/32 20/175/32 21/187/32
f 32/167/32 20/175/32 40/174/32
f 21/187/32 31/188/32 34/189/32
f 34/189/32 31/188/32 27/190/32
f 27/190/32 31/188/32 33/191/32
f 33/191/32 31/188/32 19/192/32
f 21/187/32 20/175/32 31/188/32
f 19/192/32 28/193/32 30/140/32
f 30/140/32 58/139/32 29/194/32
f 29/194/32 16/195/32 6/196/32
f 6/196/32 17/197/32 18/198/32
f 31/188/32 28/193/32 19/192/32
f 6/196/32 16/195/32 17/197/32
f 16/195/32 29/194/32 15/199/32
f 15/199/32 29/194/32 14/200/32
f 14/200/32 29/194/32 13/201/32
f 13/201/32 2/202/32 44/203/32
f 2/202/32 61/204/32 45/205/32
f 50/206/32 29/194/32 59/207/32
f 59/207/32 29/194/32 49/208/32
f 50/206/32 2/202/32 29/194/32
f 2/202/32 50/206/32 61/204/32
f 13/201/32 29/194/32 2/202/32
f 28/193/32 5/209/32 30/140/32
f 5/209/32 7/210/32 30/140/32
f 8/211/32 9/212/32 7/210/32
f 9/212/32 10/213/32 3/138/32
f 12/214/32 10/213/32 11/215/32
f 3/138/32 12/214/32 43/216/32
f 57/217/32 3/138/32 46/218/32
f 49/208/32 29/194/32 58/139/32
f 58/139/32 3/138/32 52/219/32
f 52/219/32 3/138/32 57/217/32
f 3/138/32 10/213/32 12/214/32
f 9/212/32 3/138/32 7/210/32
f 3/138/32 30/140/32 7/210/32
f 138/220/33 91/221/33 106/222/33
f 91/221/33 133/223/33 104/224/33
f 104/224/33 133/223/33 92/225/33
f 138/220/33 133/223/33 91/221/33
f 134/226/33 138/220/33 135/227/33
f 115/228/33 102/229/33 132/230/33
f 132/230/33 92/225/33 133/223/33
f 133/223/33 138/220/33 134/226/33
f 130/231/33 114/232/33 131/233/33
f 131/233/33 99/234/33 115/228/33
f 93/235/33 102/229/33 115/228/33
f 132/230/33 102/229/33 92/225/33
f 118/236/33 120/237/33 129/238/33
f 129/238/33 122/239/33 130/231/33
f 130/231/33 122/239/33 114/232/33
f 115/228/33 99/234/33 93/235/33
f 68/240/33 123/241/33 127/242/33
f 127/242/33 123/241/33 118/236/33
f 131/233/33 71/243/33 99/234/33
f 122/239/33 129/238/33 121/244/33
f 121/244/33 129/238/33 120/237/33
f 120/237/33 118/236/33 123/241/33
f 99/234/33 107/245/33 87/246/33
f 98/142/33 86/141/33 95/247/33
f 95/247/33 97/248/33 72/249/33
f 103/250/33 98/142/33 87/246/33
f 114/232/33 109/251/33 131/233/33
f 109/251/33 71/243/33 131/233/33
f 87/246/33 89/252/33 103/250/33
f 71/243/33 108/253/33 99/234/33
f 72/249/33 97/248/33 74/254/33
f 74/254/33 76/255/33 75/256/33
f 70/257/33 77/258/33 76/255/33
f 74/254/33 70/257/33 76/255/33
f 77/258/33 79/259/33 78/260/33
f 79/259/33 70/257/33 110/261/33
f 70/257/33 124/262/33 113/263/33
f 119/264/33 70/257/33 125/265/33
f 125/265/33 96/266/33 116/267/33
f 70/257/33 97/248/33 125/265/33
f 70/257/33 119/264/33 124/262/33
f 77/258/33 70/257/33 79/259/33
f 108/253/33 107/245/33 99/234/33
f 105/268/33 89/252/33 87/246/33
f 74/254/33 97/248/33 70/257/33
f 97/248/33 96/266/33 125/265/33
f 126/269/33 96/266/33 117/270/33
f 117/270/33 69/271/33 128/272/33
f 96/266/33 126/269/33 116/267/33
f 107/245/33 90/273/33 87/246/33
f 90/273/33 105/268/33 87/246/33
f 103/250/33 88/274/33 98/142/33
f 86/141/33 97/248/33 95/247/33
f 128/272/33 69/271/33 112/275/33
f 69/271/33 80/276/33 111/277/33
f 80/276/33 96/266/33 81/278/33
f 81/278/33 96/266/33 82/279/33
f 82/279/33 96/266/33 83/280/33
f 83/280/33 73/281/33 84/282/33
f 96/266/33 73/281/33 83/280/33
f 84/282/33 73/281/33 85/283/33
f 117/270/33 96/266/33 69/271/33
f 69/271/33 96/266/33 80/276/33
f 98/142/33 101/284/33 94/285/33
f 88/274/33 101/284/33 98/142/33
f 100/143/33 98/142/33 94/285/33
f 67/27/3 135/145/3 134/151/3
f 106/146/34 137/148/34 39/286/34
